<svg width="65" height="65" viewBox="0 0 65 65" fill="none" xmlns="http://www.w3.org/2000/svg">
<path d="M65 16.2522H59.5861V48.7475H65V16.2522Z" fill="white"/>
<path d="M59.5841 48.7476H54.1674V54.1638H59.5841V48.7476Z" fill="white"/>
<path d="M59.5841 10.834H54.1674V16.2503H59.5841V10.834Z" fill="white"/>
<path d="M43.3967 21.6263H43.3768V21.6462H43.3967V21.6263Z" fill="white"/>
<path d="M43.3967 21.6263H43.3768V21.6462H43.3967V21.6263Z" fill="white"/>
<path d="M48.7938 16.229V27.0429H43.3772V21.6476H43.3981V21.6266H43.3772V21.6476H37.9815V16.229H48.7938Z" fill="white"/>
<path d="M43.3967 21.6263H43.3768V21.6462H43.3967V21.6263Z" fill="white"/>
<path d="M54.1678 54.1658H48.7511V59.582H54.1678V54.1658Z" fill="white"/>
<path d="M54.1678 5.41833H48.7511V10.8346H54.1678V5.41833Z" fill="white"/>
<path d="M48.7511 59.5818H16.2488V65H48.7511V59.5818Z" fill="white"/>
<path d="M48.7511 0H16.2488V5.41821H48.7511V0Z" fill="white"/>
<path d="M16.2492 54.1658H10.8326V59.582H16.2492V54.1658Z" fill="white"/>
<path d="M16.2492 5.41833H10.8326V10.8346H16.2492V5.41833Z" fill="white"/>
<path d="M10.8307 48.7476H5.414V54.1638H10.8307V48.7476Z" fill="white"/>
<path d="M10.8307 10.834H5.414V16.2503H10.8307V10.834Z" fill="white"/>
<path d="M5.41395 16.2522H0V48.7475H5.41395V16.2522Z" fill="white"/>
</svg>
